<mxfile host="app.diagrams.net" modified="2023-06-01T07:54:23.267Z" agent="Mozilla/5.0 (Windows NT 10.0; Win64; x64) AppleWebKit/537.36 (KHTML, like Gecko) Chrome/113.0.0.0 Safari/537.36" etag="sezCvJEcPFgtHfrrT8G8" version="21.1.9" type="device">
  <diagram name="第 1 页" id="V1W0sLbI2GgZeyCbVdQ1">
    <mxGraphModel dx="1194" dy="738" grid="1" gridSize="10" guides="1" tooltips="1" connect="1" arrows="1" fold="1" page="1" pageScale="1" pageWidth="827" pageHeight="1169" math="0" shadow="0">
      <root>
        <mxCell id="0" />
        <mxCell id="1" parent="0" />
        <mxCell id="WFYV-QFJoavZbaiG5XtV-14" value="" style="endArrow=block;endSize=10;endFill=0;shadow=0;strokeWidth=1;rounded=0;edgeStyle=elbowEdgeStyle;elbow=vertical;dashed=1;dashPattern=8 8;labelBackgroundColor=none;fontColor=default;entryX=0.5;entryY=1;entryDx=0;entryDy=0;" parent="1" source="0oYUlix6nKh2kCK_5IiJ-5" target="WFYV-QFJoavZbaiG5XtV-22" edge="1">
          <mxGeometry width="160" relative="1" as="geometry">
            <mxPoint x="120" y="300" as="sourcePoint" />
            <mxPoint x="362.5" y="244" as="targetPoint" />
          </mxGeometry>
        </mxCell>
        <mxCell id="WFYV-QFJoavZbaiG5XtV-22" value="&lt;p style=&quot;margin:0px;margin-top:4px;text-align:center;&quot;&gt;&lt;i&gt;&amp;lt;&amp;lt;Interface&amp;gt;&amp;gt;&lt;br&gt;&lt;/i&gt;&lt;i style=&quot;border-color: var(--border-color);&quot;&gt;&lt;b style=&quot;border-color: var(--border-color);&quot;&gt;Implementor&lt;/b&gt;&lt;/i&gt;&lt;i&gt;&lt;br&gt;&lt;/i&gt;&lt;/p&gt;&lt;hr size=&quot;1&quot;&gt;&lt;p style=&quot;margin:0px;margin-left:4px;&quot;&gt;&lt;/p&gt;&lt;p style=&quot;margin:0px;margin-left:4px;&quot;&gt;&lt;i style=&quot;border-color: var(--border-color);&quot;&gt;+ operationImpl()&lt;/i&gt;&lt;br&gt;&lt;/p&gt;" style="verticalAlign=top;align=left;overflow=fill;fontSize=12;fontFamily=Helvetica;html=1;" parent="1" vertex="1">
          <mxGeometry x="280" y="90" width="145" height="70" as="geometry" />
        </mxCell>
        <mxCell id="0oYUlix6nKh2kCK_5IiJ-5" value="ConcreteImplementorA" style="swimlane;fontStyle=1;align=center;verticalAlign=top;childLayout=stackLayout;horizontal=1;startSize=29;horizontalStack=0;resizeParent=1;resizeParentMax=0;resizeLast=0;collapsible=1;marginBottom=0;" vertex="1" parent="1">
          <mxGeometry x="30" y="291" width="170" height="54" as="geometry" />
        </mxCell>
        <mxCell id="0oYUlix6nKh2kCK_5IiJ-6" value="+ operationImpl()" style="text;strokeColor=none;fillColor=none;align=left;verticalAlign=top;spacingLeft=4;spacingRight=4;overflow=hidden;rotatable=0;points=[[0,0.5],[1,0.5]];portConstraint=eastwest;fontStyle=0" vertex="1" parent="0oYUlix6nKh2kCK_5IiJ-5">
          <mxGeometry y="29" width="170" height="25" as="geometry" />
        </mxCell>
        <mxCell id="0oYUlix6nKh2kCK_5IiJ-7" value="ConcreteImplementorB" style="swimlane;fontStyle=1;align=center;verticalAlign=top;childLayout=stackLayout;horizontal=1;startSize=29;horizontalStack=0;resizeParent=1;resizeParentMax=0;resizeLast=0;collapsible=1;marginBottom=0;" vertex="1" parent="1">
          <mxGeometry x="220" y="291" width="170" height="54" as="geometry" />
        </mxCell>
        <mxCell id="0oYUlix6nKh2kCK_5IiJ-8" value="+ operationImpl()" style="text;strokeColor=none;fillColor=none;align=left;verticalAlign=top;spacingLeft=4;spacingRight=4;overflow=hidden;rotatable=0;points=[[0,0.5],[1,0.5]];portConstraint=eastwest;fontStyle=0" vertex="1" parent="0oYUlix6nKh2kCK_5IiJ-7">
          <mxGeometry y="29" width="170" height="25" as="geometry" />
        </mxCell>
        <mxCell id="0oYUlix6nKh2kCK_5IiJ-9" value="" style="endArrow=block;endSize=10;endFill=0;shadow=0;strokeWidth=1;rounded=0;edgeStyle=elbowEdgeStyle;elbow=vertical;dashed=1;dashPattern=8 8;labelBackgroundColor=none;fontColor=default;entryX=0.5;entryY=1;entryDx=0;entryDy=0;exitX=0.5;exitY=0;exitDx=0;exitDy=0;" edge="1" parent="1" source="0oYUlix6nKh2kCK_5IiJ-7" target="WFYV-QFJoavZbaiG5XtV-22">
          <mxGeometry width="160" relative="1" as="geometry">
            <mxPoint x="130" y="310" as="sourcePoint" />
            <mxPoint x="363" y="170" as="targetPoint" />
          </mxGeometry>
        </mxCell>
        <mxCell id="0oYUlix6nKh2kCK_5IiJ-11" value="" style="endArrow=block;endSize=10;endFill=0;shadow=0;strokeWidth=1;rounded=0;edgeStyle=elbowEdgeStyle;elbow=vertical;labelBackgroundColor=none;fontColor=default;exitX=0.5;exitY=0;exitDx=0;exitDy=0;entryX=0.5;entryY=1;entryDx=0;entryDy=0;" edge="1" parent="1" target="0oYUlix6nKh2kCK_5IiJ-14" source="0oYUlix6nKh2kCK_5IiJ-19">
          <mxGeometry width="160" relative="1" as="geometry">
            <mxPoint x="385" y="521.5" as="sourcePoint" />
            <mxPoint x="500" y="361.5" as="targetPoint" />
          </mxGeometry>
        </mxCell>
        <mxCell id="0oYUlix6nKh2kCK_5IiJ-12" value="" style="html=1;verticalAlign=bottom;labelBackgroundColor=none;startArrow=oval;startFill=0;startSize=8;endArrow=none;rounded=0;dashed=1;dashPattern=8 8;" edge="1" parent="1">
          <mxGeometry x="-0.0549" y="19" relative="1" as="geometry">
            <mxPoint x="540" y="334.5" as="sourcePoint" />
            <mxPoint x="621" y="378.5" as="targetPoint" />
            <mxPoint x="-1" as="offset" />
          </mxGeometry>
        </mxCell>
        <mxCell id="0oYUlix6nKh2kCK_5IiJ-13" value="" style="endArrow=block;endSize=10;endFill=0;shadow=0;strokeWidth=1;rounded=0;edgeStyle=elbowEdgeStyle;elbow=vertical;labelBackgroundColor=none;fontColor=default;exitX=0.5;exitY=0;exitDx=0;exitDy=0;entryX=0.5;entryY=1;entryDx=0;entryDy=0;" edge="1" parent="1" target="0oYUlix6nKh2kCK_5IiJ-14" source="0oYUlix6nKh2kCK_5IiJ-21">
          <mxGeometry width="160" relative="1" as="geometry">
            <mxPoint x="625" y="521.5" as="sourcePoint" />
            <mxPoint x="505" y="361.5" as="targetPoint" />
          </mxGeometry>
        </mxCell>
        <mxCell id="0oYUlix6nKh2kCK_5IiJ-14" value="Abstraction" style="swimlane;fontStyle=3;align=center;verticalAlign=top;childLayout=stackLayout;horizontal=1;startSize=29;horizontalStack=0;resizeParent=1;resizeParentMax=0;resizeLast=0;collapsible=1;marginBottom=0;" vertex="1" parent="1">
          <mxGeometry x="420" y="291" width="170" height="75" as="geometry" />
        </mxCell>
        <mxCell id="0oYUlix6nKh2kCK_5IiJ-15" value="+ operationImpl()" style="text;strokeColor=none;fillColor=none;align=left;verticalAlign=top;spacingLeft=4;spacingRight=4;overflow=hidden;rotatable=0;points=[[0,0.5],[1,0.5]];portConstraint=eastwest;fontStyle=0" vertex="1" parent="0oYUlix6nKh2kCK_5IiJ-14">
          <mxGeometry y="29" width="170" height="21" as="geometry" />
        </mxCell>
        <mxCell id="0oYUlix6nKh2kCK_5IiJ-16" value="+ addedOperation();" style="text;strokeColor=none;fillColor=none;align=left;verticalAlign=top;spacingLeft=4;spacingRight=4;overflow=hidden;rotatable=0;points=[[0,0.5],[1,0.5]];portConstraint=eastwest;fontStyle=2" vertex="1" parent="0oYUlix6nKh2kCK_5IiJ-14">
          <mxGeometry y="50" width="170" height="25" as="geometry" />
        </mxCell>
        <mxCell id="0oYUlix6nKh2kCK_5IiJ-17" value="&lt;div&gt;this.imp.operationImpl()&lt;/div&gt;&lt;div&gt;this.addedOperation():&lt;/div&gt;" style="shape=note2;boundedLbl=1;whiteSpace=wrap;html=1;size=25;verticalAlign=middle;align=left;labelPosition=center;verticalLabelPosition=middle;" vertex="1" parent="1">
          <mxGeometry x="570" y="378.5" width="170" height="37" as="geometry" />
        </mxCell>
        <mxCell id="0oYUlix6nKh2kCK_5IiJ-18" value="imp" style="endArrow=open;html=1;endSize=12;startArrow=diamondThin;startSize=14;startFill=0;edgeStyle=orthogonalEdgeStyle;align=left;verticalAlign=bottom;rounded=0;entryX=1;entryY=0.25;entryDx=0;entryDy=0;exitX=1;exitY=0.25;exitDx=0;exitDy=0;" edge="1" parent="1" source="0oYUlix6nKh2kCK_5IiJ-14" target="WFYV-QFJoavZbaiG5XtV-22">
          <mxGeometry x="-0.9152" y="10" relative="1" as="geometry">
            <mxPoint x="620" y="360" as="sourcePoint" />
            <mxPoint x="530" y="217" as="targetPoint" />
            <mxPoint as="offset" />
            <Array as="points">
              <mxPoint x="650" y="310" />
              <mxPoint x="650" y="108" />
            </Array>
          </mxGeometry>
        </mxCell>
        <mxCell id="0oYUlix6nKh2kCK_5IiJ-19" value="RefinedAbstractionA" style="swimlane;fontStyle=1;align=center;verticalAlign=top;childLayout=stackLayout;horizontal=1;startSize=29;horizontalStack=0;resizeParent=1;resizeParentMax=0;resizeLast=0;collapsible=1;marginBottom=0;" vertex="1" parent="1">
          <mxGeometry x="300" y="520" width="170" height="54" as="geometry" />
        </mxCell>
        <mxCell id="0oYUlix6nKh2kCK_5IiJ-20" value="+ addedOperation();" style="text;strokeColor=none;fillColor=none;align=left;verticalAlign=top;spacingLeft=4;spacingRight=4;overflow=hidden;rotatable=0;points=[[0,0.5],[1,0.5]];portConstraint=eastwest;fontStyle=0" vertex="1" parent="0oYUlix6nKh2kCK_5IiJ-19">
          <mxGeometry y="29" width="170" height="25" as="geometry" />
        </mxCell>
        <mxCell id="0oYUlix6nKh2kCK_5IiJ-21" value="RefinedAbstractionB" style="swimlane;fontStyle=1;align=center;verticalAlign=top;childLayout=stackLayout;horizontal=1;startSize=29;horizontalStack=0;resizeParent=1;resizeParentMax=0;resizeLast=0;collapsible=1;marginBottom=0;" vertex="1" parent="1">
          <mxGeometry x="530" y="520" width="170" height="54" as="geometry" />
        </mxCell>
        <mxCell id="0oYUlix6nKh2kCK_5IiJ-22" value="+ addedOperation();" style="text;strokeColor=none;fillColor=none;align=left;verticalAlign=top;spacingLeft=4;spacingRight=4;overflow=hidden;rotatable=0;points=[[0,0.5],[1,0.5]];portConstraint=eastwest;fontStyle=0" vertex="1" parent="0oYUlix6nKh2kCK_5IiJ-21">
          <mxGeometry y="29" width="170" height="25" as="geometry" />
        </mxCell>
        <mxCell id="0oYUlix6nKh2kCK_5IiJ-23" value="" style="endArrow=block;endSize=10;endFill=0;shadow=0;strokeWidth=1;rounded=0;edgeStyle=elbowEdgeStyle;elbow=vertical;dashed=1;dashPattern=8 8;labelBackgroundColor=none;fontColor=default;entryX=0.75;entryY=1;entryDx=0;entryDy=0;strokeColor=#FF3333;" edge="1" parent="1" source="0oYUlix6nKh2kCK_5IiJ-14" target="WFYV-QFJoavZbaiG5XtV-22">
          <mxGeometry width="160" relative="1" as="geometry">
            <mxPoint x="315" y="301" as="sourcePoint" />
            <mxPoint x="363" y="170" as="targetPoint" />
          </mxGeometry>
        </mxCell>
      </root>
    </mxGraphModel>
  </diagram>
</mxfile>
